# xmcd
# 
# Track frame offsets:
#     151
#     21772
#     52379
#     82374
#     107478
#     136089
#     156108
#     180310
#     207989
#     227630
# 
# Disc length: 3441
# 
# Revision: 7
# Processed by: cddbd v1.5.2PL0 Copyright (c) Steve Scherf et al.
# Submitted via: fre:ac v1.1beta1pre5
# 
DISCID=820d6f0a
DTITLE=Various Artist - Ballads in blue
DYEAR=1999
DGENRE=Jazz
TTITLE0=Melissa Walker - 01 A time for love
TTITLE1=Dusko Goykovich - 02 No love without tears
TTITLE2=Gust William Tsilis - 03 Evening in Paris
TTITLE3=Kevin Mahogany - 04 Here's that rainy day
TTITLE4=Bennie Wallace - 05 It's the talk of the town
TTITLE5=Ferenc Snétberger - 06 Szivárvány (for Attila Zoller)
TTITLE6=Jenny Evans - 07 You go to my head
TTITLE7=Karl Ratzer - 08 Farmer's charm
TTITLE8=Abdullah Ibrahim - 09 Eleventh hour
TTITLE9=Chet Baker - 10 I fall in love too easily
EXTD=
EXTT0=
EXTT1=
EXTT2=
EXTT3=
EXTT4=
EXTT5=
EXTT6=
EXTT7=
EXTT8=
EXTT9=
PLAYORDER=
